<svg width="438" height="380" viewBox="0 0 438 380" fill="none" xmlns="http://www.w3.org/2000/svg">
<g clip-path="url(#clip0)">
<path fill-rule="evenodd" clip-rule="evenodd" d="M79.351 336.316L155.727 221.54L259.205 376.802C246.174 378.907 232.742 380 219 380C165.947 380 117.256 363.597 79.351 336.316V336.316ZM425.554 253.238C403.982 306.201 356.094 348.428 295.541 368.062L219.128 253.238H425.554ZM155.709 158.238L52.487 313.357C19.7647 280.155 0 237.057 0 190C0 179.17 1.04025 168.562 3.04775 158.238H155.709ZM385.349 66.4842C418.162 99.7025 438 142.864 438 190C438 200.751 436.96 211.296 434.989 221.572H282.181L385.349 66.4842V66.4842ZM179.033 3.16667C191.99 1.0925 205.349 0 219 0C271.98 0 320.58 16.3558 358.467 43.5575L282.181 158.191L179.033 3.16667V3.16667ZM219 126.572H12.5195C34.164 73.625 82.0885 31.445 142.678 11.875L219 126.572Z" fill="#84577C"/>
</g>
<defs>
<clipPath id="clip0">
<rect width="438" height="380" fill="white"/>
</clipPath>
</defs>
</svg>
