<svg width="438" height="286" viewBox="0 0 438 286" fill="none" xmlns="http://www.w3.org/2000/svg">
<path d="M221.993 66.4458C201.005 69.47 190.931 85.9683 199.527 103.306C208.616 121.593 234.586 133.31 255.993 128.687C274.955 124.617 283.714 108.863 275.502 92.3492C266.906 75.0117 242.944 63.4217 221.993 66.4458ZM249.076 113.914L250.974 117.54L246.977 118.253L245.207 114.785C241.082 115.434 236.411 115.339 232.085 114.357L230.899 108.23C234.458 108.705 238.892 109.148 242.269 108.547L244.55 107.897C248.583 106.172 247.324 101.77 241.338 100.725C236.867 99.87 225.041 100.503 220.624 91.985C218.142 87.1717 219.985 82.1525 227.121 79.8567L225.15 76.0725L229.11 75.36L231.008 78.9858C233.91 78.5742 237.305 78.4158 241.283 78.7167L242.871 84.7808C239.768 84.4483 236.429 84.1317 233.527 84.6542L232.432 84.9075C226.793 86.2058 228.6 90.845 233.6 91.9692C241.867 93.6317 251.741 94.17 255.646 101.659C258.803 107.755 255.135 111.919 249.076 113.914ZM437.27 130.65L368.541 0.5C255.792 63.8967 131.163 -4.535 40.9348 71.0217L109.646 201.172C206.334 130.048 338.118 197.403 437.27 130.65V130.65ZM386.115 101.327C379.271 109.576 374.198 119.013 371.168 128.893C305.596 146.214 227.158 125.71 151.84 148.542C139.667 142.937 124.41 139.422 111.891 139.738L91.177 100.361C99.061 92.0483 105.266 79.3817 107.931 67.2058C169.962 47.7942 247.579 69.66 330.544 45.0233C340.052 50.5017 351.166 54.4758 362.116 56.4392L386.115 101.327V101.327ZM438 190.658C312.86 253.057 211.718 168.112 82.125 285.5L0 127.642L25.5865 104.478L95.0643 237.572L95.0277 237.683C230.899 149.096 299.336 219.063 425.517 165.436C430.882 175.696 435.828 186.526 438 190.658V190.658Z" fill="#84577C"/>
</svg>
