<svg width="54" height="54" viewBox="0 0 54 54" fill="none" xmlns="http://www.w3.org/2000/svg">
<path d="M34.2743 12.348C32.3775 12.2625 31.806 12.2445 27 12.2445C22.194 12.2445 21.6248 12.2625 19.728 12.348C14.8455 12.5708 12.5707 14.8838 12.3502 19.7257C12.2625 21.6248 12.2423 22.194 12.2423 27C12.2423 31.806 12.2625 32.3752 12.348 34.2743C12.5708 39.1073 14.8365 41.4292 19.7257 41.652C21.6225 41.7375 22.194 41.7578 27 41.7578C31.8083 41.7578 32.3775 41.7397 34.2743 41.6543C39.1567 41.4315 41.4292 39.114 41.652 34.2765C41.7375 32.3775 41.7555 31.8083 41.7555 27.0023C41.7555 22.1963 41.7375 21.627 41.652 19.7302C41.4292 14.886 39.1522 12.5708 34.2743 12.348ZM27 36.243C21.8948 36.243 17.757 32.1053 17.757 27C17.757 21.8948 21.897 17.757 27 17.757C32.103 17.757 36.243 21.8948 36.243 27C36.243 32.1053 32.1053 36.243 27 36.243ZM36.6097 19.5525C35.4173 19.5525 34.4497 18.585 34.4497 17.3925C34.4497 16.2 35.4173 15.2325 36.6097 15.2325C37.8022 15.2325 38.7698 16.2 38.7698 17.3925C38.7698 18.585 37.8022 19.5525 36.6097 19.5525ZM33.0007 27C33.0007 30.3143 30.3143 33.0007 27 33.0007C23.6857 33.0007 20.9993 30.3143 20.9993 27C20.9993 23.6857 23.6857 20.9993 27 20.9993C30.3143 20.9993 33.0007 23.6857 33.0007 27ZM42.75 0H11.25C5.03775 0 0 5.03775 0 11.25V42.75C0 48.9622 5.03775 54 11.25 54H42.75C48.9645 54 54 48.9622 54 42.75V11.25C54 5.03775 48.9645 0 42.75 0V0ZM44.892 34.4205C44.595 40.9658 40.9522 44.5928 34.4227 44.892C32.5013 44.9797 31.8892 45 27 45C22.1108 45 21.501 44.9797 19.5795 44.892C13.0365 44.5928 9.4095 40.959 9.108 34.4205C9.02025 32.5013 9 31.8892 9 27C9 22.113 9.02025 21.4987 9.108 19.5795C9.4095 13.0365 13.041 9.40725 19.5795 9.11025C21.501 9.02025 22.1108 9 27 9C31.8892 9 32.5013 9.02025 34.4227 9.108C40.9657 9.40725 44.5995 13.0478 44.892 19.5773C44.9797 21.4988 45 22.113 45 27C45 31.8892 44.9797 32.5013 44.892 34.4205Z" fill="#84577C"/>
</svg>
