<svg width="54" height="54" viewBox="0 0 54 54" fill="none" xmlns="http://www.w3.org/2000/svg">
<path d="M42.75 0H11.25C5.03775 0 0 5.03775 0 11.25V42.75C0 48.9622 5.03775 54 11.25 54H42.75C48.9645 54 54 48.9622 54 42.75V11.25C54 5.03775 48.9645 0 42.75 0ZM18 42.75H11.25V18H18V42.75ZM14.625 15.147C12.4515 15.147 10.6875 13.3695 10.6875 11.178C10.6875 8.9865 12.4515 7.209 14.625 7.209C16.7985 7.209 18.5625 8.9865 18.5625 11.178C18.5625 13.3695 16.8008 15.147 14.625 15.147ZM45 42.75H38.25V30.141C38.25 22.563 29.25 23.1367 29.25 30.141V42.75H22.5V18H29.25V21.9713C32.391 16.1528 45 15.723 45 27.5422V42.75Z" fill="#84577C"/>
</svg>
