<svg width="438" height="254" viewBox="0 0 438 254" fill="none" xmlns="http://www.w3.org/2000/svg">
<path d="M184.672 191.347C226.519 182.955 265.464 175.608 246.612 144.702C189.179 50.6357 231.373 0.333252 292.018 0.333252C353.849 0.333252 395.003 52.5674 337.424 144.717C317.988 175.814 358.394 183.145 399.346 191.362C435.573 198.614 438 213.972 438 240.557L437.945 253.667H413.691C413.691 220.591 415.206 216.189 391.316 211.407C356.623 204.472 323.883 197.917 311.911 174.927C307.549 166.536 304.702 152.729 316.035 134.663C341.074 94.5732 347.407 59.8349 333.355 39.3941C316.893 15.3749 267.344 15.5016 251.01 39.0458C236.994 59.2016 243.236 94.1299 268.092 134.837C279.17 152.982 276.25 166.757 271.852 175.102C259.807 197.981 226.738 204.599 191.734 211.597C168.885 216.189 170.345 220.907 170.345 253.667H146.055C146.055 218.897 142.843 199.738 184.672 191.347V191.347ZM0.0365 253.667H24.2907C24.2907 223.298 20.8962 231.737 57.5787 222.427C76.0843 217.757 92.4363 210.98 99.8458 196.904C103.715 189.573 106.325 177.587 96.8893 162.118C79.5152 133.65 74.6425 108.697 83.8953 95.3807C93.878 80.9882 125.323 81.0041 135.342 95.6182C152.406 120.429 120.87 158.667 116.727 174.5H142.204C150.234 158.667 164.214 139.54 164.214 112.75C164.214 80.9249 140.269 63.6666 109.5 63.6666C64.0027 63.6666 32.3572 101.397 75.4455 171.951C89.571 195.131 60.371 200.641 28.9992 206.927C1.80675 212.389 0 223.9 0 243.882L0.0365 253.667V253.667Z" fill="#84577C"/>
</svg>
