<svg width="438" height="380" viewBox="0 0 438 380" fill="none" xmlns="http://www.w3.org/2000/svg">
<g clip-path="url(#clip0)">
<path d="M290.357 211.217L338.464 147.472L330.179 141.043L263.147 190.111C250.828 187.926 237.56 191.187 228.581 199.896C215.149 212.927 216.445 232.956 231.483 244.609C246.521 256.263 269.589 255.138 283.021 242.092C292 233.383 294.245 221.587 290.357 211.217V211.217ZM219 42.655V0H292V42.655C265.738 38.8075 244.696 38.8867 219 42.655ZM380.531 75.335L406.208 53.0575L432.014 75.4458L407.906 96.3617C399.474 88.6983 390.313 81.6842 380.531 75.335V75.335ZM36.5 142.5H182.5V174.167H36.5V142.5ZM0 205.833H146V237.5H0V205.833ZM54.75 269.167H182.5V300.833H54.75V269.167ZM438 221.667C438 309.114 356.295 380 255.5 380C204.583 380 158.775 361.712 125.724 332.5H185.584C206.353 342.491 230.096 348.333 255.5 348.333C336.001 348.333 401.5 291.507 401.5 221.667C401.5 151.826 336.001 95 255.5 95C230.096 95 206.353 100.842 185.584 110.833H125.724C158.775 81.6208 204.583 63.3333 255.5 63.3333C356.295 63.3333 438 134.219 438 221.667Z" fill="#84577C"/>
</g>
<defs>
<clipPath id="clip0">
<rect width="438" height="380" fill="white"/>
</clipPath>
</defs>
</svg>
